<svg width="4563" height="939" viewBox="0 0 4563 939" fill="none" xmlns="http://www.w3.org/2000/svg">
<path fill-rule="evenodd" clip-rule="evenodd" d="M53.3033 29.5775C302.564 -10.3452 553.762 -9.35808 803.084 29.5409L856.655 37.8886L856.534 473.784C856.509 574.395 833.416 667.682 765.245 744.213C686.168 832.978 560.514 880.359 453.992 927.618L428.328 939L402.651 927.618C296.142 880.359 170.488 832.978 91.4102 744.225C23.2395 667.694 0.13405 574.395 0.109678 473.784L0 38.108L53.3033 29.5775Z" fill="#C5C6C6"/>
<path fill-rule="evenodd" clip-rule="evenodd" d="M53.3033 29.5775C302.564 -10.3452 553.762 -9.35808 803.084 29.5409L856.655 37.8886L856.534 473.784C856.509 574.395 833.416 667.682 765.245 744.213C686.168 832.978 560.514 880.359 453.992 927.618L428.328 939L402.651 927.618C296.142 880.359 170.488 832.978 91.4102 744.225C23.2395 667.694 0.13405 574.395 0.109678 473.784L0 38.108L53.3033 29.5775Z" fill="#D9DADA"/>
<path fill-rule="evenodd" clip-rule="evenodd" d="M428.31 68.5241C308.432 68.3901 188.518 77.6274 68.5918 96.6016L68.6893 473.759C68.7502 706.239 208.845 767.67 393.676 848.722C405.826 854.048 418.293 859.519 428.31 863.955C438.534 859.434 450.806 854.048 462.956 848.734C647.787 767.67 787.882 706.239 787.955 473.759L788.041 96.6138C668.126 78.127 548.212 68.646 428.31 68.5241Z" fill="#0098B5"/>
<path d="M62.4734 86.8526C184.411 67.33 306.36 57.8246 428.321 57.9465C550.259 58.0805 672.196 67.8418 794.133 86.8526L798.618 87.5594V92.0806L798.508 473.759C798.447 713.148 655.622 775.786 467.184 858.423C456.058 863.297 444.676 868.281 430.454 874.594L428.321 875.544L426.189 874.594C411.699 868.172 400.573 863.285 389.447 858.423C201.008 775.786 58.1838 713.148 58.1351 473.759L58.0254 92.0806V87.5716L62.4734 86.8526ZM428.321 68.5243C308.419 68.3902 188.517 77.6275 68.591 96.5896L68.7007 473.759C68.7494 706.239 208.844 767.683 393.676 848.722C405.825 854.048 418.28 859.519 428.321 863.955C438.534 859.434 450.805 854.048 462.955 848.722C647.799 767.683 787.894 706.239 787.942 473.759L788.04 96.6017C668.125 78.1272 548.211 68.6339 428.321 68.5243Z" fill="#FEFEFE"/>
<path d="M200.192 533V322.76H247.424V533H200.192ZM391.721 538.472C372.713 538.472 356.393 535.208 342.761 528.68C329.129 521.96 317.993 513.224 309.353 502.472C300.713 491.528 294.281 479.816 290.057 467.336C286.025 454.664 284.009 442.376 284.009 430.472V424.136C284.009 411.08 286.121 398.216 290.345 385.544C294.569 372.68 301.001 361.064 309.641 350.696C318.473 340.328 329.513 332.072 342.761 325.928C356.201 319.592 372.041 316.424 390.281 316.424C409.289 316.424 426.089 319.976 440.681 327.08C455.273 334.184 466.889 344.072 475.529 356.744C484.361 369.224 489.545 383.912 491.081 400.808H443.561C442.217 392.36 439.145 385.16 434.345 379.208C429.545 373.256 423.305 368.648 415.625 365.384C408.137 362.12 399.689 360.488 390.281 360.488C380.873 360.488 372.521 362.12 365.225 365.384C357.929 368.648 351.785 373.256 346.793 379.208C341.993 385.16 338.249 392.264 335.561 400.52C333.065 408.584 331.817 417.608 331.817 427.592C331.817 437.384 333.065 446.408 335.561 454.664C338.249 462.728 342.089 469.832 347.081 475.976C352.265 481.928 358.601 486.536 366.089 489.8C373.577 492.872 382.121 494.408 391.721 494.408C406.313 494.408 418.601 490.856 428.585 483.752C438.761 476.648 444.905 466.856 447.017 454.376H494.249C492.521 469.736 487.337 483.848 478.697 496.712C470.249 509.384 458.633 519.56 443.849 527.24C429.257 534.728 411.881 538.472 391.721 538.472ZM565.376 533V358.184H612.608V533H565.376ZM506.336 363.944V322.76H671.936V363.944H506.336Z" fill="#FEFEFE"/>
<path d="M1034.25 179.288V369H1065.51V179.288H1034.25ZM1106.71 235.4V369H1136.1V303.269C1136.1 288.84 1139.3 277.885 1145.98 270.403C1152.66 263.189 1160.68 259.448 1170.57 259.448C1179.12 259.448 1185.8 262.387 1190.87 268.266C1195.95 274.411 1198.36 282.694 1198.36 293.382V369H1227.75V288.573C1227.75 280.022 1226.68 272.274 1224.27 265.326C1221.87 258.646 1218.4 252.768 1213.85 247.958C1209.31 243.149 1203.97 239.408 1197.82 236.736C1191.41 234.064 1184.46 232.728 1176.71 232.728C1167.89 232.728 1160.15 234.598 1152.93 238.072C1145.72 241.546 1140.11 246.89 1136.1 253.57V235.4H1106.71ZM1276.61 261.586V369H1306V261.586H1344.21V235.4H1306V216.429C1306 208.146 1307.87 202.267 1311.61 198.794C1315.09 195.32 1320.7 193.717 1328.45 193.717C1331.39 193.717 1334.06 193.984 1337 194.251C1339.67 194.786 1342.07 195.587 1344.21 196.389V170.203C1341.27 169.402 1338.07 168.6 1334.59 167.798C1331.12 167.264 1326.84 166.997 1322.3 166.997C1315.89 166.997 1310.01 168.066 1304.4 169.936C1298.79 171.806 1293.98 174.746 1289.97 178.754C1285.69 182.762 1282.49 187.571 1280.08 193.182C1277.68 198.794 1276.61 205.474 1276.61 212.955V235.4H1248.82V261.586H1276.61ZM1425.42 371.672C1435.31 371.672 1444.39 369.802 1452.94 366.328C1461.49 362.854 1468.97 357.778 1475.39 351.365C1481.53 345.219 1486.61 337.738 1490.08 329.187C1493.56 320.904 1495.43 311.819 1495.43 302.2C1495.43 292.581 1493.56 283.496 1490.08 274.946C1486.61 266.662 1481.53 259.181 1475.39 252.768C1468.97 246.622 1461.49 241.546 1452.94 238.072C1444.39 234.598 1435.31 232.728 1425.42 232.728C1415.53 232.728 1406.18 234.598 1397.9 238.072C1389.35 241.546 1381.87 246.622 1375.72 252.768C1369.31 259.181 1364.23 266.662 1360.76 274.946C1357.28 283.496 1355.41 292.581 1355.41 302.2C1355.41 311.819 1357.28 320.904 1360.76 329.187C1364.23 337.738 1369.31 345.219 1375.72 351.365C1381.87 357.778 1389.35 362.854 1397.9 366.328C1406.18 369.802 1415.53 371.672 1425.42 371.672ZM1425.42 344.418C1419.54 344.418 1414.2 343.349 1409.12 341.211C1404.04 339.074 1399.77 336.134 1396.3 332.126C1392.82 328.386 1389.88 323.843 1388.01 318.766C1386.14 313.69 1385.07 308.078 1385.07 302.2C1385.07 296.322 1386.14 290.71 1388.01 285.634C1389.88 280.557 1392.82 276.014 1396.3 272.006C1399.77 268.266 1404.04 265.326 1409.12 263.189C1414.2 261.051 1419.54 259.982 1425.42 259.982C1431.3 259.982 1436.64 261.051 1441.72 263.189C1446.53 265.326 1450.8 268.266 1454.28 272.006C1457.75 276.014 1460.69 280.557 1462.56 285.634C1464.43 290.71 1465.5 296.322 1465.5 302.2C1465.5 308.078 1464.43 313.69 1462.56 318.766C1460.69 323.843 1457.75 328.386 1454.28 332.126C1450.8 336.134 1446.53 339.074 1441.72 341.211C1436.64 343.349 1431.3 344.418 1425.42 344.418ZM1524.99 235.4V369H1554.38V303.803C1554.38 297.123 1555.18 291.245 1557.05 286.168C1558.92 281.091 1561.33 276.816 1564.27 273.342C1567.21 269.869 1570.41 267.464 1574.42 265.594C1578.16 263.723 1582.17 262.922 1586.44 262.922C1589.12 262.922 1591.52 263.189 1593.93 263.456C1596.33 263.723 1598.74 264.525 1601.14 265.326V235.133C1597.67 234.331 1593.66 234.064 1589.65 234.064C1585.91 234.064 1582.17 234.598 1578.43 235.667C1574.69 237.003 1571.21 238.606 1568.27 240.744C1565.07 243.149 1562.4 245.821 1559.99 248.76C1557.59 251.966 1555.72 255.44 1554.38 259.181V235.4H1524.99ZM1796.7 293.917V369H1826.09V289.107C1826.09 272.006 1821.82 258.379 1813.53 247.958C1804.98 237.805 1793.23 232.728 1778 232.728C1769.18 232.728 1760.63 234.866 1752.88 239.408C1745.13 243.95 1739.25 250.63 1735.24 259.181C1731.77 250.898 1726.43 244.218 1719.48 239.675C1712.26 235.133 1703.71 232.728 1693.83 232.728C1685.28 232.728 1677.8 234.598 1671.38 238.339C1664.7 242.347 1659.63 247.424 1655.89 253.57V235.4H1626.49V369H1655.89V303.269C1655.89 289.107 1658.82 278.419 1664.7 270.67C1670.58 263.189 1678.33 259.448 1687.95 259.448C1695.97 259.448 1701.84 262.654 1705.85 268.8C1709.86 274.946 1711.73 283.496 1711.73 293.917V369H1741.12V301.131C1741.39 287.771 1744.6 277.35 1750.47 270.136C1756.09 262.922 1763.57 259.448 1772.92 259.448C1780.93 259.448 1786.81 262.654 1790.82 268.8C1794.83 274.946 1796.7 283.496 1796.7 293.917ZM1902.16 371.672C1911.25 371.672 1919.26 369.802 1926.48 366.328C1933.42 362.854 1939.04 358.045 1943.31 351.899V369H1972.7V281.358C1972.7 272.541 1971.37 265.059 1968.43 258.914C1965.49 252.768 1961.48 247.958 1956.4 243.95C1951.33 239.942 1945.45 237.27 1938.77 235.4C1932.09 233.53 1925.41 232.728 1918.19 232.728C1908.84 232.728 1900.83 234.064 1893.61 236.736C1886.4 239.675 1880.25 243.149 1875.17 247.691C1870.1 252.234 1866.09 257.31 1863.42 262.922C1860.48 268.533 1859.14 274.411 1858.88 280.022H1887.2C1888 273.342 1891.21 267.731 1896.82 263.189C1902.16 258.914 1909.11 256.776 1917.66 256.776C1924.87 256.776 1931.02 258.379 1935.83 261.318C1940.37 264.525 1942.78 268.8 1942.78 273.877C1942.78 278.419 1940.37 281.626 1935.56 283.229C1930.75 285.099 1923.54 286.702 1913.92 288.573C1904.57 290.176 1896.02 292.046 1888.8 294.184C1881.59 296.589 1875.44 299.261 1870.37 302.734C1865.29 306.208 1861.28 310.216 1858.61 315.026C1855.94 319.835 1854.6 325.446 1854.6 332.126C1854.6 337.203 1855.67 342.28 1857.81 346.822C1859.68 351.632 1862.88 355.907 1866.89 359.381C1870.9 363.122 1875.71 366.061 1881.85 368.198C1887.73 370.603 1894.41 371.672 1902.16 371.672ZM1907.77 347.891C1901.09 347.891 1895.48 346.288 1891.47 343.349C1887.2 340.41 1885.06 336.402 1885.06 330.79C1885.06 325.981 1886.66 321.973 1890.14 318.766C1893.61 315.827 1899.49 312.888 1908.04 310.483C1910.45 309.682 1913.12 309.147 1916.32 308.346C1919.26 307.544 1922.47 306.742 1925.94 305.941C1929.15 305.139 1932.36 304.07 1935.56 303.002C1938.5 302.2 1941.17 301.131 1943.31 300.062V314.491C1943.31 319.301 1942.24 323.576 1940.37 327.584C1938.5 331.592 1935.83 335.333 1932.62 338.272C1929.42 341.211 1925.68 343.616 1921.4 345.219C1917.13 347.09 1912.58 347.891 1907.77 347.891ZM2067.27 370.336C2071.81 370.336 2076.09 370.069 2079.56 369.534C2083.04 369 2086.24 368.198 2089.18 367.397V341.211C2087.04 342.013 2084.64 342.814 2081.97 343.082C2079.03 343.616 2076.36 343.883 2073.42 343.883C2065.67 343.883 2060.06 342.28 2056.58 338.806C2052.84 335.333 2050.97 329.454 2050.97 321.171V261.586H2089.18V235.4H2050.97V198.259H2021.58V235.4H1993.79V261.586H2021.58V325.981C2021.58 333.462 2022.65 339.875 2025.05 345.486C2027.46 351.098 2030.66 355.907 2034.94 359.381C2038.95 363.122 2043.76 365.794 2049.37 367.664C2054.98 369.534 2060.86 370.336 2067.27 370.336ZM2131.75 206.275C2137.36 206.275 2141.91 204.405 2145.65 200.397C2149.39 196.656 2151.26 192.114 2151.26 186.502C2151.26 181.158 2149.39 176.616 2145.65 172.608C2141.91 168.867 2137.36 166.997 2131.75 166.997C2126.41 166.997 2121.87 168.867 2117.86 172.608C2113.85 176.616 2111.98 181.158 2111.98 186.502C2111.98 192.114 2113.85 196.656 2117.86 200.397C2121.87 204.405 2126.41 206.275 2131.75 206.275ZM2117.06 235.4V369H2146.45V235.4H2117.06ZM2246.33 371.672C2256.22 371.672 2265.3 369.802 2273.85 366.328C2282.4 362.854 2289.88 357.778 2296.3 351.365C2302.44 345.219 2307.52 337.738 2310.99 329.187C2314.47 320.904 2316.34 311.819 2316.34 302.2C2316.34 292.581 2314.47 283.496 2310.99 274.946C2307.52 266.662 2302.44 259.181 2296.3 252.768C2289.88 246.622 2282.4 241.546 2273.85 238.072C2265.3 234.598 2256.22 232.728 2246.33 232.728C2236.44 232.728 2227.09 234.598 2218.81 238.072C2210.26 241.546 2202.78 246.622 2196.63 252.768C2190.22 259.181 2185.14 266.662 2181.67 274.946C2178.19 283.496 2176.32 292.581 2176.32 302.2C2176.32 311.819 2178.19 320.904 2181.67 329.187C2185.14 337.738 2190.22 345.219 2196.63 351.365C2202.78 357.778 2210.26 362.854 2218.81 366.328C2227.09 369.802 2236.44 371.672 2246.33 371.672ZM2246.33 344.418C2240.45 344.418 2235.11 343.349 2230.03 341.211C2224.95 339.074 2220.68 336.134 2217.21 332.126C2213.73 328.386 2210.79 323.843 2208.92 318.766C2207.05 313.69 2205.98 308.078 2205.98 302.2C2205.98 296.322 2207.05 290.71 2208.92 285.634C2210.79 280.557 2213.73 276.014 2217.21 272.006C2220.68 268.266 2224.95 265.326 2230.03 263.189C2235.11 261.051 2240.45 259.982 2246.33 259.982C2252.21 259.982 2257.55 261.051 2262.63 263.189C2267.44 265.326 2271.71 268.266 2275.19 272.006C2278.66 276.014 2281.6 280.557 2283.47 285.634C2285.34 290.71 2286.41 296.322 2286.41 302.2C2286.41 308.078 2285.34 313.69 2283.47 318.766C2281.6 323.843 2278.66 328.386 2275.19 332.126C2271.71 336.134 2267.44 339.074 2262.63 341.211C2257.55 343.349 2252.21 344.418 2246.33 344.418ZM2345.9 235.4V369H2375.29V303.269C2375.29 288.84 2378.5 277.885 2385.18 270.403C2391.86 263.189 2399.87 259.448 2409.76 259.448C2418.31 259.448 2424.99 262.387 2430.07 268.266C2435.14 274.411 2437.55 282.694 2437.55 293.382V369H2466.94V288.573C2466.94 280.022 2465.87 272.274 2463.47 265.326C2461.06 258.646 2457.59 252.768 2453.04 247.958C2448.5 243.149 2443.16 239.408 2437.01 236.736C2430.6 234.064 2423.65 232.728 2415.9 232.728C2407.09 232.728 2399.34 234.598 2392.12 238.072C2384.91 241.546 2379.3 246.89 2375.29 253.57V235.4H2345.9ZM2605.91 371.672C2615 371.672 2623.01 369.802 2630.23 366.328C2637.17 362.854 2642.78 358.045 2647.06 351.899V369H2676.45V281.358C2676.45 272.541 2675.12 265.059 2672.18 258.914C2669.24 252.768 2665.23 247.958 2660.15 243.95C2655.08 239.942 2649.2 237.27 2642.52 235.4C2635.84 233.53 2629.16 232.728 2621.94 232.728C2612.59 232.728 2604.57 234.064 2597.36 236.736C2590.15 239.675 2584 243.149 2578.92 247.691C2573.85 252.234 2569.84 257.31 2567.17 262.922C2564.23 268.533 2562.89 274.411 2562.62 280.022H2590.95C2591.75 273.342 2594.96 267.731 2600.57 263.189C2605.91 258.914 2612.86 256.776 2621.41 256.776C2628.62 256.776 2634.77 258.379 2639.58 261.318C2644.12 264.525 2646.52 268.8 2646.52 273.877C2646.52 278.419 2644.12 281.626 2639.31 283.229C2634.5 285.099 2627.29 286.702 2617.67 288.573C2608.32 290.176 2599.76 292.046 2592.55 294.184C2585.34 296.589 2579.19 299.261 2574.11 302.734C2569.04 306.208 2565.03 310.216 2562.36 315.026C2559.68 319.835 2558.35 325.446 2558.35 332.126C2558.35 337.203 2559.42 342.28 2561.56 346.822C2563.43 351.632 2566.63 355.907 2570.64 359.381C2574.65 363.122 2579.46 366.061 2585.6 368.198C2591.48 370.603 2598.16 371.672 2605.91 371.672ZM2611.52 347.891C2604.84 347.891 2599.23 346.288 2595.22 343.349C2590.95 340.41 2588.81 336.402 2588.81 330.79C2588.81 325.981 2590.41 321.973 2593.89 318.766C2597.36 315.827 2603.24 312.888 2611.79 310.483C2614.19 309.682 2616.87 309.147 2620.07 308.346C2623.01 307.544 2626.22 306.742 2629.69 305.941C2632.9 305.139 2636.1 304.07 2639.31 303.002C2642.25 302.2 2644.92 301.131 2647.06 300.062V314.491C2647.06 319.301 2645.99 323.576 2644.12 327.584C2642.25 331.592 2639.58 335.333 2636.37 338.272C2633.16 341.211 2629.42 343.616 2625.15 345.219C2620.87 347.09 2616.33 347.891 2611.52 347.891ZM2714.08 235.4V369H2743.47V303.269C2743.47 288.84 2746.68 277.885 2753.36 270.403C2760.04 263.189 2768.05 259.448 2777.94 259.448C2786.49 259.448 2793.17 262.387 2798.25 268.266C2803.33 274.411 2805.73 282.694 2805.73 293.382V369H2835.12V288.573C2835.12 280.022 2834.05 272.274 2831.65 265.326C2829.24 258.646 2825.77 252.768 2821.23 247.958C2816.69 243.149 2811.34 239.408 2805.2 236.736C2798.78 234.064 2791.84 232.728 2784.09 232.728C2775.27 232.728 2767.52 234.598 2760.31 238.072C2753.09 241.546 2747.48 246.89 2743.47 253.57V235.4H2714.08ZM2927.51 371.672C2937.13 371.672 2945.68 369.534 2953.42 365.259C2960.91 361.251 2966.52 356.442 2970.26 351.098V369H2999.65V168.6H2970.26V253.302C2966.52 247.958 2960.91 243.149 2953.42 238.874C2945.68 234.866 2937.13 232.728 2927.51 232.728C2918.42 232.728 2909.87 234.598 2902.12 238.072C2894.11 241.813 2887.16 246.89 2881.55 253.035C2875.94 259.448 2871.39 266.93 2868.19 275.213C2864.71 283.496 2863.11 292.581 2863.11 302.2C2863.11 311.819 2864.71 320.904 2868.19 329.187C2871.39 337.47 2875.94 344.952 2881.55 351.098C2887.16 357.51 2894.11 362.587 2902.12 366.061C2909.87 369.802 2918.42 371.672 2927.51 371.672ZM2932.85 344.952C2926.97 344.952 2921.63 343.883 2916.82 341.478C2911.74 339.341 2907.73 336.402 2904.26 332.394C2900.79 328.653 2897.85 324.11 2895.98 319.034C2894.11 313.957 2893.04 308.346 2893.04 302.2C2893.04 296.054 2894.11 290.443 2895.98 285.366C2897.85 280.29 2900.79 275.747 2904.26 271.739C2907.73 267.998 2911.74 265.059 2916.82 262.654C2921.63 260.517 2926.97 259.448 2932.85 259.448C2938.73 259.448 2944.07 260.517 2949.15 262.654C2953.96 265.059 2958.23 267.998 2961.71 271.739C2965.18 275.747 2967.85 280.29 2969.72 285.366C2971.59 290.443 2972.66 296.054 2972.66 302.2C2972.66 308.346 2971.59 313.957 2969.72 319.034C2967.85 324.11 2965.18 328.653 2961.71 332.394C2958.23 336.402 2953.96 339.341 2949.15 341.478C2944.07 343.883 2938.73 344.952 2932.85 344.952ZM1121.09 711.206C1132.58 711.206 1143.26 709.336 1153.42 705.862C1163.3 702.389 1172.39 697.846 1180.4 691.701C1188.42 685.555 1195.1 678.608 1200.71 670.325C1206.32 662.309 1210.06 653.758 1212.47 644.406H1178.8C1176.93 649.75 1173.99 654.56 1170.25 659.102C1166.51 663.645 1162.24 667.653 1157.16 670.859C1152.08 674.066 1146.47 676.47 1140.32 678.341C1134.18 680.211 1127.77 681.013 1121.09 681.013C1111.2 681.013 1102.12 679.142 1093.83 675.669C1085.55 672.195 1078.6 667.386 1072.72 661.24C1066.58 655.094 1062.04 648.147 1058.83 639.864C1055.36 631.581 1053.75 622.763 1053.75 613.144C1053.75 603.525 1055.36 594.707 1058.83 586.424C1062.04 578.141 1066.58 570.926 1072.72 564.781C1078.6 558.635 1085.55 553.826 1093.83 550.352C1102.12 546.878 1111.2 545.275 1121.09 545.275C1127.77 545.275 1134.18 546.077 1140.32 547.947C1146.47 549.818 1152.08 552.222 1157.16 555.429C1162.24 558.635 1166.51 562.376 1170.25 566.918C1173.99 571.461 1176.93 576.538 1178.8 581.882H1212.47C1210.06 572.53 1206.32 563.979 1200.71 555.696C1195.1 547.68 1188.42 540.733 1180.4 534.587C1172.39 528.442 1163.3 523.632 1153.42 520.158C1143.26 516.685 1132.58 515.082 1121.09 515.082C1106.92 515.082 1093.83 517.486 1081.81 522.563C1069.78 527.64 1059.36 534.32 1050.55 543.138C1041.73 551.955 1034.78 562.376 1029.7 574.4C1024.63 586.424 1022.22 599.25 1022.22 613.144C1022.22 627.038 1024.63 639.864 1029.7 651.888C1034.78 663.912 1041.73 674.066 1050.55 682.883C1059.36 691.701 1069.78 698.648 1081.81 703.725C1093.83 708.802 1106.92 711.206 1121.09 711.206ZM1300.95 710.672C1310.84 710.672 1319.92 708.802 1328.48 705.328C1337.03 701.854 1344.51 696.778 1350.92 690.365C1357.07 684.219 1362.14 676.738 1365.62 668.187C1369.09 659.904 1370.96 650.819 1370.96 641.2C1370.96 631.581 1369.09 622.496 1365.62 613.946C1362.14 605.662 1357.07 598.181 1350.92 591.768C1344.51 585.622 1337.03 580.546 1328.48 577.072C1319.92 573.598 1310.84 571.728 1300.95 571.728C1291.07 571.728 1281.72 573.598 1273.43 577.072C1264.88 580.546 1257.4 585.622 1251.25 591.768C1244.84 598.181 1239.76 605.662 1236.29 613.946C1232.82 622.496 1230.95 631.581 1230.95 641.2C1230.95 650.819 1232.82 659.904 1236.29 668.187C1239.76 676.738 1244.84 684.219 1251.25 690.365C1257.4 696.778 1264.88 701.854 1273.43 705.328C1281.72 708.802 1291.07 710.672 1300.95 710.672ZM1300.95 683.418C1295.08 683.418 1289.73 682.349 1284.65 680.211C1279.58 678.074 1275.3 675.134 1271.83 671.126C1268.36 667.386 1265.42 662.843 1263.55 657.766C1261.68 652.69 1260.61 647.078 1260.61 641.2C1260.61 635.322 1261.68 629.71 1263.55 624.634C1265.42 619.557 1268.36 615.014 1271.83 611.006C1275.3 607.266 1279.58 604.326 1284.65 602.189C1289.73 600.051 1295.08 598.982 1300.95 598.982C1306.83 598.982 1312.18 600.051 1317.25 602.189C1322.06 604.326 1326.34 607.266 1329.81 611.006C1333.28 615.014 1336.22 619.557 1338.09 624.634C1339.96 629.71 1341.03 635.322 1341.03 641.2C1341.03 647.078 1339.96 652.69 1338.09 657.766C1336.22 662.843 1333.28 667.386 1329.81 671.126C1326.34 675.134 1322.06 678.074 1317.25 680.211C1312.18 682.349 1306.83 683.418 1300.95 683.418ZM1570.73 632.917V708H1600.12V628.107C1600.12 611.006 1595.84 597.379 1587.56 586.958C1579.01 576.805 1567.25 571.728 1552.02 571.728C1543.21 571.728 1534.66 573.866 1526.91 578.408C1519.16 582.95 1513.28 589.63 1509.27 598.181C1505.8 589.898 1500.45 583.218 1493.51 578.675C1486.29 574.133 1477.74 571.728 1467.86 571.728C1459.31 571.728 1451.82 573.598 1445.41 577.339C1438.73 581.347 1433.65 586.424 1429.91 592.57V574.4H1400.52V708H1429.91V642.269C1429.91 628.107 1432.85 617.419 1438.73 609.67C1444.61 602.189 1452.36 598.448 1461.98 598.448C1469.99 598.448 1475.87 601.654 1479.88 607.8C1483.89 613.946 1485.76 622.496 1485.76 632.917V708H1515.15V640.131C1515.42 626.771 1518.62 616.35 1524.5 609.136C1530.11 601.922 1537.59 598.448 1546.95 598.448C1554.96 598.448 1560.84 601.654 1564.85 607.8C1568.86 613.946 1570.73 622.496 1570.73 632.917ZM1807.92 632.917V708H1837.31V628.107C1837.31 611.006 1833.04 597.379 1824.75 586.958C1816.2 576.805 1804.45 571.728 1789.22 571.728C1780.4 571.728 1771.85 573.866 1764.1 578.408C1756.35 582.95 1750.47 589.63 1746.46 598.181C1742.99 589.898 1737.65 583.218 1730.7 578.675C1723.48 574.133 1714.93 571.728 1705.05 571.728C1696.5 571.728 1689.02 573.598 1682.6 577.339C1675.92 581.347 1670.85 586.424 1667.11 592.57V574.4H1637.71V708H1667.11V642.269C1667.11 628.107 1670.04 617.419 1675.92 609.67C1681.8 602.189 1689.55 598.448 1699.17 598.448C1707.19 598.448 1713.06 601.654 1717.07 607.8C1721.08 613.946 1722.95 622.496 1722.95 632.917V708H1752.34V640.131C1752.61 626.771 1755.82 616.35 1761.69 609.136C1767.31 601.922 1774.79 598.448 1784.14 598.448C1792.15 598.448 1798.03 601.654 1802.04 607.8C1806.05 613.946 1807.92 622.496 1807.92 632.917ZM1922.73 710.672C1931.28 710.672 1939.03 708.802 1945.71 705.328C1952.39 701.854 1957.74 696.51 1961.75 689.83V708H1991.14V574.4H1961.75V640.131C1961.75 654.56 1958.81 665.515 1952.66 672.73C1946.52 680.211 1938.77 683.952 1929.15 683.952C1920.6 683.952 1913.92 680.746 1909.37 674.6C1904.83 668.454 1902.43 660.171 1902.43 649.483V574.4H1873.04V654.293C1873.04 662.843 1874.1 670.592 1876.51 677.539C1878.91 684.486 1882.12 690.365 1886.4 695.174C1890.67 700.251 1896.01 703.992 1902.16 706.664C1908.31 709.336 1914.99 710.672 1922.73 710.672ZM2030.69 574.4V708H2060.08V642.269C2060.08 627.84 2063.28 616.885 2069.96 609.403C2076.64 602.189 2084.66 598.448 2094.55 598.448C2103.1 598.448 2109.78 601.387 2114.85 607.266C2119.93 613.411 2122.33 621.694 2122.33 632.382V708H2151.73V627.573C2151.73 619.022 2150.66 611.274 2148.25 604.326C2145.85 597.646 2142.37 591.768 2137.83 586.958C2133.29 582.149 2127.95 578.408 2121.8 575.736C2115.39 573.064 2108.44 571.728 2100.69 571.728C2091.87 571.728 2084.13 573.598 2076.91 577.072C2069.7 580.546 2064.09 585.89 2060.08 592.57V574.4H2030.69ZM2204.03 545.275C2209.64 545.275 2214.18 543.405 2217.93 539.397C2221.67 535.656 2223.54 531.114 2223.54 525.502C2223.54 520.158 2221.67 515.616 2217.93 511.608C2214.18 507.867 2209.64 505.997 2204.03 505.997C2198.69 505.997 2194.14 507.867 2190.14 511.608C2186.13 515.616 2184.26 520.158 2184.26 525.502C2184.26 531.114 2186.13 535.656 2190.14 539.397C2194.14 543.405 2198.69 545.275 2204.03 545.275ZM2189.34 574.4V708H2218.73V574.4H2189.34ZM2318.61 710.672C2327.43 710.672 2335.44 709.336 2343.19 706.664C2350.67 704.259 2357.35 700.518 2363.23 695.976C2368.84 691.434 2373.92 685.822 2377.93 679.677C2381.94 673.531 2384.61 666.584 2386.48 659.102H2355.48C2352.81 666.317 2348.27 672.462 2342.12 677.005C2335.71 681.547 2327.96 683.952 2318.61 683.952C2312.73 683.952 2307.39 682.883 2302.31 680.746C2297.23 678.608 2293.23 675.669 2289.75 671.928C2286.28 668.187 2283.34 663.645 2281.47 658.301C2279.6 653.224 2278.53 647.346 2278.53 641.2C2278.53 635.054 2279.6 629.176 2281.47 623.832C2283.34 618.755 2286.28 614.213 2289.75 610.472C2293.23 606.731 2297.23 603.792 2302.31 601.654C2307.39 599.517 2312.73 598.448 2318.61 598.448C2327.96 598.448 2335.71 600.853 2342.12 605.395C2348.27 609.938 2352.81 616.083 2355.48 623.298H2386.48C2384.61 615.816 2381.94 608.869 2377.93 602.723C2373.92 596.578 2368.84 590.966 2363.23 586.424C2357.35 581.882 2350.67 578.141 2343.19 575.469C2335.44 573.064 2327.43 571.728 2318.61 571.728C2308.46 571.728 2299.1 573.598 2290.55 577.072C2282 580.813 2274.52 585.89 2268.38 592.035C2262.23 598.181 2257.42 605.662 2253.95 613.946C2250.47 622.496 2248.6 631.581 2248.6 641.2C2248.6 650.819 2250.47 659.904 2253.95 668.187C2257.42 676.738 2262.23 684.219 2268.38 690.365C2274.52 696.51 2282 701.587 2290.55 705.061C2299.1 708.802 2308.46 710.672 2318.61 710.672ZM2452.74 710.672C2461.82 710.672 2469.84 708.802 2477.06 705.328C2484 701.854 2489.61 697.045 2493.89 690.899V708H2523.28V620.358C2523.28 611.541 2521.94 604.059 2519.01 597.914C2516.07 591.768 2512.06 586.958 2506.98 582.95C2501.9 578.942 2496.03 576.27 2489.35 574.4C2482.67 572.53 2475.99 571.728 2468.77 571.728C2459.42 571.728 2451.4 573.064 2444.19 575.736C2436.98 578.675 2430.83 582.149 2425.75 586.691C2420.68 591.234 2416.67 596.31 2414 601.922C2411.06 607.533 2409.72 613.411 2409.45 619.022H2437.78C2438.58 612.342 2441.78 606.731 2447.4 602.189C2452.74 597.914 2459.69 595.776 2468.24 595.776C2475.45 595.776 2481.6 597.379 2486.41 600.318C2490.95 603.525 2493.35 607.8 2493.35 612.877C2493.35 617.419 2490.95 620.626 2486.14 622.229C2481.33 624.099 2474.12 625.702 2464.5 627.573C2455.14 629.176 2446.59 631.046 2439.38 633.184C2432.17 635.589 2426.02 638.261 2420.94 641.734C2415.87 645.208 2411.86 649.216 2409.19 654.026C2406.51 658.835 2405.18 664.446 2405.18 671.126C2405.18 676.203 2406.25 681.28 2408.38 685.822C2410.26 690.632 2413.46 694.907 2417.47 698.381C2421.48 702.122 2426.29 705.061 2432.43 707.198C2438.31 709.603 2444.99 710.672 2452.74 710.672ZM2458.35 686.891C2451.67 686.891 2446.06 685.288 2442.05 682.349C2437.78 679.41 2435.64 675.402 2435.64 669.79C2435.64 664.981 2437.24 660.973 2440.72 657.766C2444.19 654.827 2450.07 651.888 2458.62 649.483C2461.02 648.682 2463.7 648.147 2466.9 647.346C2469.84 646.544 2473.05 645.742 2476.52 644.941C2479.73 644.139 2482.93 643.07 2486.14 642.002C2489.08 641.2 2491.75 640.131 2493.89 639.062V653.491C2493.89 658.301 2492.82 662.576 2490.95 666.584C2489.08 670.592 2486.41 674.333 2483.2 677.272C2479.99 680.211 2476.25 682.616 2471.98 684.219C2467.7 686.09 2463.16 686.891 2458.35 686.891ZM2617.85 709.336C2622.39 709.336 2626.67 709.069 2630.14 708.534C2633.61 708 2636.82 707.198 2639.76 706.397V680.211C2637.62 681.013 2635.22 681.814 2632.54 682.082C2629.61 682.616 2626.93 682.883 2623.99 682.883C2616.25 682.883 2610.63 681.28 2607.16 677.806C2603.42 674.333 2601.55 668.454 2601.55 660.171V600.586H2639.76V574.4H2601.55V537.259H2572.16V574.4H2544.37V600.586H2572.16V664.981C2572.16 672.462 2573.23 678.875 2575.63 684.486C2578.04 690.098 2581.24 694.907 2585.52 698.381C2589.53 702.122 2594.34 704.794 2599.95 706.664C2605.56 708.534 2611.44 709.336 2617.85 709.336ZM2682.33 545.275C2687.94 545.275 2692.48 543.405 2696.22 539.397C2699.96 535.656 2701.84 531.114 2701.84 525.502C2701.84 520.158 2699.96 515.616 2696.22 511.608C2692.48 507.867 2687.94 505.997 2682.33 505.997C2676.99 505.997 2672.44 507.867 2668.44 511.608C2664.43 515.616 2662.56 520.158 2662.56 525.502C2662.56 531.114 2664.43 535.656 2668.44 539.397C2672.44 543.405 2676.99 545.275 2682.33 545.275ZM2667.63 574.4V708H2697.03V574.4H2667.63ZM2796.91 710.672C2806.79 710.672 2815.88 708.802 2824.43 705.328C2832.98 701.854 2840.46 696.778 2846.87 690.365C2853.02 684.219 2858.1 676.738 2861.57 668.187C2865.04 659.904 2866.91 650.819 2866.91 641.2C2866.91 631.581 2865.04 622.496 2861.57 613.946C2858.1 605.662 2853.02 598.181 2846.87 591.768C2840.46 585.622 2832.98 580.546 2824.43 577.072C2815.88 573.598 2806.79 571.728 2796.91 571.728C2787.02 571.728 2777.67 573.598 2769.39 577.072C2760.84 580.546 2753.35 585.622 2747.21 591.768C2740.8 598.181 2735.72 605.662 2732.25 613.946C2728.77 622.496 2726.9 631.581 2726.9 641.2C2726.9 650.819 2728.77 659.904 2732.25 668.187C2735.72 676.738 2740.8 684.219 2747.21 690.365C2753.35 696.778 2760.84 701.854 2769.39 705.328C2777.67 708.802 2787.02 710.672 2796.91 710.672ZM2796.91 683.418C2791.03 683.418 2785.69 682.349 2780.61 680.211C2775.53 678.074 2771.26 675.134 2767.78 671.126C2764.31 667.386 2761.37 662.843 2759.5 657.766C2757.63 652.69 2756.56 647.078 2756.56 641.2C2756.56 635.322 2757.63 629.71 2759.5 624.634C2761.37 619.557 2764.31 615.014 2767.78 611.006C2771.26 607.266 2775.53 604.326 2780.61 602.189C2785.69 600.051 2791.03 598.982 2796.91 598.982C2802.79 598.982 2808.13 600.051 2813.21 602.189C2818.02 604.326 2822.29 607.266 2825.77 611.006C2829.24 615.014 2832.18 619.557 2834.05 624.634C2835.92 629.71 2836.99 635.322 2836.99 641.2C2836.99 647.078 2835.92 652.69 2834.05 657.766C2832.18 662.843 2829.24 667.386 2825.77 671.126C2822.29 675.134 2818.02 678.074 2813.21 680.211C2808.13 682.349 2802.79 683.418 2796.91 683.418ZM2896.48 574.4V708H2925.87V642.269C2925.87 627.84 2929.07 616.885 2935.75 609.403C2942.43 602.189 2950.45 598.448 2960.34 598.448C2968.89 598.448 2975.57 601.387 2980.64 607.266C2985.72 613.411 2988.13 621.694 2988.13 632.382V708H3017.52V627.573C3017.52 619.022 3016.45 611.274 3014.04 604.326C3011.64 597.646 3008.17 591.768 3003.62 586.958C2999.08 582.149 2993.74 578.408 2987.59 575.736C2981.18 573.064 2974.23 571.728 2966.48 571.728C2957.66 571.728 2949.92 573.598 2942.7 577.072C2935.49 580.546 2929.88 585.89 2925.87 592.57V574.4H2896.48ZM3149.75 548.214V708H3181.01V548.214H3236.32V518.288H3094.7V548.214H3149.75ZM3295.01 710.672C3303.56 710.672 3311.31 709.603 3318.52 707.198C3325.73 704.794 3332.15 701.587 3337.76 697.579C3343.37 693.571 3347.91 689.029 3351.92 683.418C3355.66 678.074 3358.6 672.195 3360.47 666.05H3329.74C3326.8 672.462 3322.26 677.272 3316.38 680.211C3310.24 683.15 3303.56 684.754 3296.08 684.754C3290.2 684.754 3284.85 683.685 3280.04 681.814C3274.97 679.944 3270.96 677.539 3267.49 674.066C3264.01 670.859 3261.07 667.118 3259.2 662.576C3257.06 658.301 3256 653.491 3255.73 648.414H3362.07C3362.88 636.925 3361.54 626.504 3358.6 617.152C3355.66 607.8 3351.12 599.784 3345.24 593.104C3339.09 586.424 3331.88 581.08 3323.33 577.339C3314.78 573.598 3305.43 571.728 3295.27 571.728C3284.85 571.728 3275.5 573.598 3267.22 577.072C3258.67 580.546 3251.45 585.355 3245.57 591.501C3239.43 597.646 3234.89 605.128 3231.68 613.678C3228.21 622.229 3226.6 631.314 3226.6 641.2C3226.6 651.086 3228.21 660.438 3231.68 668.989C3235.15 677.539 3239.7 684.754 3245.84 690.899C3251.99 697.045 3259.2 701.854 3267.49 705.328C3275.77 708.802 3285.12 710.672 3295.01 710.672ZM3294.47 596.31C3302.76 596.31 3310.24 598.715 3316.92 603.792C3323.6 608.869 3328.14 616.618 3330.54 627.573H3256.53C3258.4 617.152 3262.94 609.403 3270.16 604.059C3277.1 598.982 3285.12 596.31 3294.47 596.31ZM3452.64 710.672C3461.46 710.672 3469.48 709.336 3477.23 706.664C3484.71 704.259 3491.39 700.518 3497.27 695.976C3502.88 691.434 3507.95 685.822 3511.96 679.677C3515.97 673.531 3518.64 666.584 3520.51 659.102H3489.52C3486.85 666.317 3482.3 672.462 3476.16 677.005C3469.74 681.547 3462 683.952 3452.64 683.952C3446.77 683.952 3441.42 682.883 3436.34 680.746C3431.27 678.608 3427.26 675.669 3423.79 671.928C3420.31 668.187 3417.37 663.645 3415.5 658.301C3413.63 653.224 3412.56 647.346 3412.56 641.2C3412.56 635.054 3413.63 629.176 3415.5 623.832C3417.37 618.755 3420.31 614.213 3423.79 610.472C3427.26 606.731 3431.27 603.792 3436.34 601.654C3441.42 599.517 3446.77 598.448 3452.64 598.448C3462 598.448 3469.74 600.853 3476.16 605.395C3482.3 609.938 3486.85 616.083 3489.52 623.298H3520.51C3518.64 615.816 3515.97 608.869 3511.96 602.723C3507.95 596.578 3502.88 590.966 3497.27 586.424C3491.39 581.882 3484.71 578.141 3477.23 575.469C3469.48 573.064 3461.46 571.728 3452.64 571.728C3442.49 571.728 3433.14 573.598 3424.59 577.072C3416.04 580.813 3408.56 585.89 3402.41 592.035C3396.26 598.181 3391.46 605.662 3387.98 613.946C3384.51 622.496 3382.64 631.581 3382.64 641.2C3382.64 650.819 3384.51 659.904 3387.98 668.187C3391.46 676.738 3396.26 684.219 3402.41 690.365C3408.56 696.51 3416.04 701.587 3424.59 705.061C3433.14 708.802 3442.49 710.672 3452.64 710.672ZM3548.3 708H3577.69V642.269C3577.69 627.84 3580.9 616.885 3587.58 609.403C3594.26 602.189 3602.27 598.448 3612.16 598.448C3620.71 598.448 3627.39 601.387 3632.47 607.266C3637.54 613.411 3639.95 621.694 3639.95 632.382V708H3669.34V627.573C3669.34 619.022 3668.27 611.274 3665.87 604.326C3663.46 597.646 3659.99 591.768 3655.44 586.958C3650.9 582.149 3645.56 578.408 3639.41 575.736C3633 573.064 3626.05 571.728 3618.3 571.728C3609.49 571.728 3601.74 573.598 3594.52 577.072C3587.31 580.546 3581.7 585.89 3577.69 592.57V507.6H3548.3V708ZM3706.95 574.4V708H3736.34V642.269C3736.34 627.84 3739.55 616.885 3746.23 609.403C3752.91 602.189 3760.92 598.448 3770.81 598.448C3779.36 598.448 3786.04 601.387 3791.12 607.266C3796.19 613.411 3798.6 621.694 3798.6 632.382V708H3827.99V627.573C3827.99 619.022 3826.92 611.274 3824.52 604.326C3822.11 597.646 3818.64 591.768 3814.09 586.958C3809.55 582.149 3804.21 578.408 3798.06 575.736C3791.65 573.064 3784.7 571.728 3776.95 571.728C3768.14 571.728 3760.39 573.598 3753.17 577.072C3745.96 580.546 3740.35 585.89 3736.34 592.57V574.4H3706.95ZM3925.98 710.672C3935.87 710.672 3944.96 708.802 3953.51 705.328C3962.06 701.854 3969.54 696.778 3975.95 690.365C3982.1 684.219 3987.17 676.738 3990.65 668.187C3994.12 659.904 3995.99 650.819 3995.99 641.2C3995.99 631.581 3994.12 622.496 3990.65 613.946C3987.17 605.662 3982.1 598.181 3975.95 591.768C3969.54 585.622 3962.06 580.546 3953.51 577.072C3944.96 573.598 3935.87 571.728 3925.98 571.728C3916.1 571.728 3906.75 573.598 3898.46 577.072C3889.91 580.546 3882.43 585.622 3876.29 591.768C3869.87 598.181 3864.8 605.662 3861.32 613.946C3857.85 622.496 3855.98 631.581 3855.98 641.2C3855.98 650.819 3857.85 659.904 3861.32 668.187C3864.8 676.738 3869.87 684.219 3876.29 690.365C3882.43 696.778 3889.91 701.854 3898.46 705.328C3906.75 708.802 3916.1 710.672 3925.98 710.672ZM3925.98 683.418C3920.11 683.418 3914.76 682.349 3909.69 680.211C3904.61 678.074 3900.33 675.134 3896.86 671.126C3893.39 667.386 3890.45 662.843 3888.58 657.766C3886.71 652.69 3885.64 647.078 3885.64 641.2C3885.64 635.322 3886.71 629.71 3888.58 624.634C3890.45 619.557 3893.39 615.014 3896.86 611.006C3900.33 607.266 3904.61 604.326 3909.69 602.189C3914.76 600.051 3920.11 598.982 3925.98 598.982C3931.86 598.982 3937.21 600.051 3942.28 602.189C3947.09 604.326 3951.37 607.266 3954.84 611.006C3958.32 615.014 3961.26 619.557 3963.13 624.634C3965 629.71 3966.06 635.322 3966.06 641.2C3966.06 647.078 3965 652.69 3963.13 657.766C3961.26 662.843 3958.32 667.386 3954.84 671.126C3951.37 675.134 3947.09 678.074 3942.28 680.211C3937.21 682.349 3931.86 683.418 3925.98 683.418ZM4053.61 665.515V507.6H4024.22V673.264C4024.22 679.677 4025.29 685.288 4027.16 689.83C4029.03 694.373 4031.97 698.114 4035.44 701.053C4038.91 703.992 4042.65 705.862 4047.2 707.198C4051.74 708.534 4056.55 709.336 4061.62 709.336C4065.37 709.336 4068.57 709.336 4070.98 709.069C4073.38 708.802 4075.52 708.534 4077.39 708V681.814C4075.52 682.082 4074.18 682.349 4072.85 682.349C4071.51 682.616 4070.17 682.616 4068.84 682.616C4063.76 682.616 4060.02 681.28 4057.62 678.608C4054.94 676.203 4053.61 671.661 4053.61 665.515ZM4161.61 710.672C4171.5 710.672 4180.58 708.802 4189.13 705.328C4197.68 701.854 4205.17 696.778 4211.58 690.365C4217.72 684.219 4222.8 676.738 4226.27 668.187C4229.75 659.904 4231.62 650.819 4231.62 641.2C4231.62 631.581 4229.75 622.496 4226.27 613.946C4222.8 605.662 4217.72 598.181 4211.58 591.768C4205.17 585.622 4197.68 580.546 4189.13 577.072C4180.58 573.598 4171.5 571.728 4161.61 571.728C4151.73 571.728 4142.37 573.598 4134.09 577.072C4125.54 580.546 4118.06 585.622 4111.91 591.768C4105.5 598.181 4100.42 605.662 4096.95 613.946C4093.48 622.496 4091.61 631.581 4091.61 641.2C4091.61 650.819 4093.48 659.904 4096.95 668.187C4100.42 676.738 4105.5 684.219 4111.91 690.365C4118.06 696.778 4125.54 701.854 4134.09 705.328C4142.37 708.802 4151.73 710.672 4161.61 710.672ZM4161.61 683.418C4155.73 683.418 4150.39 682.349 4145.31 680.211C4140.24 678.074 4135.96 675.134 4132.49 671.126C4129.01 667.386 4126.07 662.843 4124.2 657.766C4122.33 652.69 4121.26 647.078 4121.26 641.2C4121.26 635.322 4122.33 629.71 4124.2 624.634C4126.07 619.557 4129.01 615.014 4132.49 611.006C4135.96 607.266 4140.24 604.326 4145.31 602.189C4150.39 600.051 4155.73 598.982 4161.61 598.982C4167.49 598.982 4172.83 600.051 4177.91 602.189C4182.72 604.326 4187 607.266 4190.47 611.006C4193.94 615.014 4196.88 619.557 4198.75 624.634C4200.62 629.71 4201.69 635.322 4201.69 641.2C4201.69 647.078 4200.62 652.69 4198.75 657.766C4196.88 662.843 4193.94 667.386 4190.47 671.126C4187 675.134 4182.72 678.074 4177.91 680.211C4172.83 682.349 4167.49 683.418 4161.61 683.418ZM4321.57 766.517C4330.38 766.517 4338.93 765.181 4347.22 762.509C4355.23 760.104 4362.18 756.096 4368.33 750.485C4374.47 745.141 4379.28 738.194 4382.75 729.643C4386.23 721.36 4388.1 711.206 4388.1 699.717V574.4H4358.71V592.302C4354.7 586.424 4348.82 581.614 4341.34 577.606C4333.59 573.598 4325.31 571.728 4315.95 571.728C4306.87 571.728 4298.59 573.331 4290.84 576.805C4283.09 580.278 4276.14 585.088 4270.53 591.234C4264.65 597.379 4260.11 604.594 4256.9 612.877C4253.43 621.16 4251.83 629.978 4251.83 639.33C4251.83 648.682 4253.43 657.499 4256.9 665.782C4260.11 674.066 4264.65 681.28 4270.53 687.426C4276.14 693.571 4283.09 698.381 4290.84 701.854C4298.59 705.328 4306.87 707.198 4315.95 707.198C4325.31 707.198 4333.59 705.061 4341.34 701.053C4348.82 697.045 4354.7 692.235 4358.71 686.357V702.122C4358.71 708.534 4357.91 714.146 4356.03 718.955C4354.16 724.032 4351.49 728.04 4348.29 731.246C4344.81 734.72 4341.07 737.125 4336.53 738.728C4331.99 740.598 4327.44 741.4 4322.37 741.4C4313.02 741.4 4305 739.53 4298.85 735.789C4292.71 732.315 4288.17 726.437 4285.49 718.421H4256.64C4257.44 725.368 4259.58 731.781 4263.05 737.659C4266.52 743.538 4271.07 748.614 4276.68 752.89C4282.29 757.165 4288.7 760.371 4296.45 762.776C4304.2 765.181 4312.48 766.517 4321.57 766.517ZM4321.3 680.211C4315.69 680.211 4310.34 679.142 4305.53 677.005C4300.72 675.134 4296.45 672.195 4292.98 668.722C4289.5 665.248 4286.56 660.706 4284.69 655.629C4282.55 650.552 4281.49 645.208 4281.49 639.33C4281.49 633.451 4282.55 627.84 4284.69 622.763C4286.56 617.686 4289.5 613.411 4292.98 609.938C4296.45 606.464 4300.72 603.525 4305.53 601.387C4310.34 599.517 4315.69 598.448 4321.3 598.448C4326.91 598.448 4332.25 599.517 4337.06 601.387C4341.87 603.525 4346.15 606.464 4349.62 609.938C4353.1 613.411 4356.03 617.686 4358.17 622.763C4360.04 627.84 4361.11 633.451 4361.11 639.33C4361.11 645.208 4360.04 650.552 4358.17 655.629C4356.03 660.706 4353.1 665.248 4349.62 668.722C4346.15 672.195 4341.87 675.134 4337.06 677.005C4332.25 679.142 4326.91 680.211 4321.3 680.211ZM4438.08 763.845H4470.41L4556.18 574.4H4523.58L4482.43 668.989L4441.55 574.4H4409.22L4466.67 700.786L4438.08 763.845Z" fill="black"/>
</svg>
